<svg width="15" height="20" viewBox="0 0 15 20" fill="none" xmlns="http://www.w3.org/2000/svg">
<g opacity="0.6">
<path d="M14.9227 6.54645C14.5942 4.16788 13.3962 2.332 11.3481 1.08883C9.59757 0.0265611 7.68471 -0.269797 5.69843 0.249792C3.02816 0.946427 1.23509 2.63606 0.357884 5.24555C-0.0208231 6.3694 -0.121297 7.52405 0.164666 8.69409C0.388799 9.6101 0.763642 10.4645 1.19259 11.2997C2.76538 14.3364 4.81736 17.046 6.93503 19.7171C7.22485 20.0827 7.80064 20.1097 8.06342 19.7055C8.1523 19.567 8.27596 19.4477 8.37643 19.3168C9.74055 17.6041 11.0506 15.849 12.2369 14.0054C13.0948 12.6776 13.8793 11.3074 14.4667 9.83718C14.7797 9.04433 15.0038 8.23223 15 7.37009C14.9768 7.09298 14.9613 6.81971 14.9227 6.54645ZM13.7054 7.73573C13.6629 8.29766 13.4658 8.86343 13.2687 9.40227C12.7122 10.911 11.8737 12.2735 11.0003 13.609C9.96469 15.1947 8.86334 16.7343 7.63834 18.1814C7.59197 18.2353 7.5456 18.2853 7.48377 18.3585C6.97754 17.708 6.4713 17.0768 5.98439 16.434C4.62414 14.6251 3.36049 12.7546 2.31712 10.7455C1.94227 10.0219 1.63699 9.26756 1.41672 8.47855C1.20418 7.72418 1.23509 6.96597 1.3974 6.21545C1.64472 5.0685 2.15481 4.05627 2.97792 3.20568C3.99038 2.1588 5.21925 1.49296 6.67225 1.33516C9.28456 1.05035 11.3443 2.01255 12.7934 4.20252C13.4928 5.27249 13.802 6.47332 13.7054 7.73573Z" fill="black"/>
<path d="M7.51082 3.47895C5.46271 3.47125 3.78557 5.12624 3.77398 7.16996C3.77784 9.23292 5.48589 10.8764 7.47604 10.8802C9.52415 10.8841 11.2013 9.24831 11.2167 7.19305C11.2322 5.15703 9.57052 3.48664 7.51082 3.47895ZM7.50309 9.64089C6.14283 9.64089 5.0299 8.53628 5.0299 7.1815C5.0299 5.82672 6.13124 4.72211 7.49536 4.71826C8.85175 4.71057 9.96469 5.81517 9.96855 7.1738C9.97241 8.52859 8.86334 9.64089 7.50309 9.64089Z" fill="black"/>
</g>
</svg>
